<svg height="983" viewBox="0 0 1920 983" width="1920" xmlns="http://www.w3.org/2000/svg" xmlns:xlink="http://www.w3.org/1999/xlink"><defs><linearGradient id="a" x1="50%" x2="0%" y1="52.65%" y2="100%"><stop offset="0" stop-color="#fff"/><stop offset="1" stop-color="#f5f6f9"/></linearGradient><path id="b" d="m0 0h1920v983h-1920z"/><linearGradient id="c" x1="4.583%" x2="58.239%" y1="65.455%" y2="1.732%"><stop offset="0" stop-color="#f6f8fa"/><stop offset="1" stop-color="#e9edf4"/></linearGradient><mask id="d" fill="#fff"><use fill="#fff" fill-rule="evenodd" xlink:href="#b"/></mask></defs><g fill="none" fill-rule="evenodd"><use fill="url(#a)" xlink:href="#b"/><path d="m1801.123-244.3c-38.604-14.151-74.377-28.688-111.308-40.78a1630.5 1630.5 0 0 0 -345.379-77.831 423.343 423.343 0 0 0 -141.548 4.631 168.734 168.734 0 0 0 -23.549 7.204c-42.207 16.724-59.193 49.014-48.64 93.911a251.09 251.09 0 0 0 50.828 101.116c109.636 134.692 220.044 269.126 330.194 404.204 70.646 87.093 141.549 174.315 210.135 262.694a498.074 498.074 0 0 1 85.187 156.304c28.052 89.28 6.562 165.31-62.539 227.832-58.936 53.259-130.353 83.49-205.889 105.489a1215.317 1215.317 0 0 1 -432.366 41.167 958.636 958.636 0 0 1 -283.097-59.563 428.018 428.018 0 0 1 -132.67-77.188c-60.504-51.492-94.467-127.58-92.392-206.99 1.03-63.165 29.725-115.781 70.645-161.836 63.182-71.013 143.222-117.968 228.923-156.176a983.7 983.7 0 0 1 230.595-71.784c3.86-.643 7.592-1.93 12.096-3.088-29.854-31.39-59.45-61.364-87.631-92.624-92.65-102.917-180.153-208.792-248.998-329.204-27.151-47.47-53.66-96.227-58.163-151.416-7.078-87.093 8.621-153.732 94.322-206.99 56.105-34.735 118.772-51.459 182.984-61.75 129.839-21.613 260.32-19.555 391.06-10.807a2859.372 2859.372 0 0 1 366.868 47.985c30.111 5.918 25.093-.9 24.578 30.618-1.03 74.485-2.831 149.1-4.247 224.872zm-521.027 1122.046c70.388.772 108.35-6.432 135.243-20.969 31.074-14.364 48.295-48.107 41.693-81.69a221.375 221.375 0 0 0 -51.472-105.747c-54.947-70.111-112.596-138.68-169.73-207.505a16.346 16.346 0 0 0 -15.313-.772c-49.413 29.332-99.341 58.02-147.339 90.052a210.742 210.742 0 0 0 -71.932 79.374c-26.644 45.413-22.015 102.64 11.58 143.183a203.056 203.056 0 0 0 92.908 66.381 557.058 557.058 0 0 0 174.362 37.693z" fill="url(#c)" mask="url(#d)" opacity=".5"/></g></svg>